<svg width="24" height="24" viewBox="0 0 24 24" fill="none" xmlns="http://www.w3.org/2000/svg">
<path d="M14.037 20.9376C13.8543 20.9375 13.6752 20.8873 13.519 20.7926L10.185 18.7926C9.80988 18.5664 9.49937 18.2473 9.2834 17.8661C9.06744 17.485 8.9533 17.0547 8.952 16.6166V12.0916C8.95264 11.7722 8.85334 11.4607 8.668 11.2006L4.013 4.6586C3.9043 4.50758 3.83944 4.32946 3.82557 4.14391C3.81169 3.95835 3.84935 3.77257 3.93438 3.60706C4.01941 3.44155 4.14851 3.30275 4.30743 3.20597C4.46636 3.10919 4.64893 3.05819 4.835 3.0586H19.165C19.3512 3.05783 19.534 3.1086 19.6932 3.2053C19.8523 3.30201 19.9816 3.44087 20.0667 3.60651C20.1518 3.77215 20.1894 3.95811 20.1753 4.1438C20.1613 4.32949 20.0961 4.50767 19.987 4.6586L15.332 11.2006C15.1463 11.4606 15.0466 11.7721 15.047 12.0916V19.9256C15.0467 20.1936 14.9403 20.4505 14.751 20.6402C14.5617 20.8299 14.305 20.9368 14.037 20.9376ZM4.835 4.0636L9.482 10.6206C9.78998 11.049 9.95449 11.564 9.952 12.0916V16.6156C9.95237 16.881 10.0213 17.1419 10.1522 17.3728C10.2831 17.6037 10.4715 17.7969 10.699 17.9336L14.033 19.9336L14.047 12.0906C14.0448 11.5628 14.2097 11.0479 14.518 10.6196L19.172 4.0776L4.835 4.0636Z" fill="black"/>
</svg>
