<svg width="24" height="24" viewBox="0 0 24 24" fill="none" xmlns="http://www.w3.org/2000/svg">
<path d="M19.4349 4.06445H4.56494C3.9019 4.06445 3.26602 4.32785 2.79717 4.79669C2.32833 5.26553 2.06494 5.90141 2.06494 6.56445V17.4345C2.06494 18.0975 2.32833 18.7334 2.79717 19.2022C3.26602 19.6711 3.9019 19.9345 4.56494 19.9345H19.4349C20.098 19.9345 20.7339 19.6711 21.2027 19.2022C21.6715 18.7334 21.9349 18.0975 21.9349 17.4345V6.56445C21.9349 5.90141 21.6715 5.26553 21.2027 4.79669C20.7339 4.32785 20.098 4.06445 19.4349 4.06445ZM4.56494 5.06445H19.4349C19.8134 5.0636 20.178 5.20678 20.4547 5.46493C20.7314 5.72309 20.8995 6.07686 20.9249 6.45445C18.4549 7.77445 15.9749 9.08445 13.4949 10.4045C13.16 10.6157 12.8049 10.7932 12.4349 10.9345C12.1449 10.9919 11.8458 10.9868 11.5579 10.9196C11.2699 10.8523 10.9996 10.7244 10.7649 10.5445C9.34494 9.79445 7.92494 9.03445 6.51494 8.28445C5.37494 7.68445 4.21494 7.07445 3.07494 6.46445C3.0979 6.08508 3.26496 5.72883 3.54194 5.46858C3.81892 5.20833 4.18488 5.06376 4.56494 5.06445ZM20.9349 17.4345C20.9349 17.8323 20.7769 18.2138 20.4956 18.4951C20.2143 18.7764 19.8328 18.9345 19.4349 18.9345H4.56494C4.16712 18.9345 3.78559 18.7764 3.50428 18.4951C3.22298 18.2138 3.06494 17.8323 3.06494 17.4345V7.59945C5.42494 8.83945 7.77494 10.0995 10.1349 11.3495C10.5565 11.6082 11.0104 11.8099 11.4849 11.9495C12.1793 12.0625 12.8911 11.9166 13.4849 11.5395C14.9349 10.7795 16.3749 10.0095 17.8249 9.24945C18.8649 8.68945 19.8949 8.14945 20.9349 7.59945V17.4345Z" fill="black"/>
</svg>
