<svg width="16" height="16" viewBox="0 0 16 16" fill="none" xmlns="http://www.w3.org/2000/svg">
<path d="M11.1819 9.76848L10.4749 9.06148L11.8889 7.64648C13.0609 6.47548 13.2189 4.73448 12.2429 3.75748C11.2659 2.78148 9.5249 2.93948 8.3529 4.11148L6.93991 5.52548L6.2329 4.81848L7.6469 3.40448C9.2099 1.84248 11.5839 1.68448 12.9509 3.05048C14.3179 4.41748 14.1589 6.79148 12.5969 8.35448L11.1829 9.76848H11.1819ZM9.7679 11.1825L8.35391 12.5965C6.79091 14.1585 4.41691 14.3165 3.04991 12.9505C1.68291 11.5835 1.84191 9.20948 3.40391 7.64648L4.81791 6.23248L5.52491 6.93948L4.11091 8.35448C2.93891 9.52548 2.78091 11.2665 3.75691 12.2435C4.73391 13.2195 6.4749 13.0615 7.6469 11.8895L9.0609 10.4755L9.7679 11.1825ZM9.7679 5.52548L10.4749 6.23248L6.2319 10.4755L5.52491 9.76848L9.7679 5.52548Z" fill="black"/>
</svg>
