<svg width="16" height="16" viewBox="0 0 16 16" fill="none" xmlns="http://www.w3.org/2000/svg">
<path d="M5.99994 1.5C5.99994 1.36739 6.05262 1.24021 6.14639 1.14645C6.24016 1.05268 6.36734 1 6.49994 1C6.63255 1 6.75973 1.05268 6.8535 1.14645C6.94727 1.24021 6.99994 1.36739 6.99994 1.5V13.793C6.99992 13.8918 6.97062 13.9884 6.91574 14.0706C6.86086 14.1528 6.78287 14.2168 6.6916 14.2547C6.60033 14.2926 6.49989 14.3026 6.40295 14.2834C6.30601 14.2642 6.21693 14.2168 6.14694 14.147L1.49894 9.5C1.45238 9.45355 1.41544 9.39838 1.39023 9.33763C1.36503 9.27689 1.35205 9.21177 1.35205 9.146C1.35205 9.08023 1.36503 9.01511 1.39023 8.95437C1.41544 8.89362 1.45238 8.83845 1.49894 8.792H1.50094C1.59467 8.69857 1.72161 8.64611 1.85394 8.64611C1.98628 8.64611 2.11322 8.69857 2.20694 8.792L5.99994 12.588V1.5ZM8.99994 2.207C9.00016 2.10827 9.02961 2.01181 9.08456 1.92979C9.13952 1.84777 9.21753 1.78386 9.30875 1.7461C9.39998 1.70835 9.50034 1.69845 9.59719 1.71765C9.69403 1.73685 9.78302 1.7843 9.85294 1.854L14.5009 6.5C14.5475 6.54645 14.5845 6.60162 14.6097 6.66237C14.6349 6.72311 14.6478 6.78823 14.6478 6.854C14.6478 6.91977 14.6349 6.98489 14.6097 7.04563C14.5845 7.10638 14.5475 7.16155 14.5009 7.208H14.4989C14.4052 7.30143 14.2783 7.35389 14.1459 7.35389C14.0136 7.35389 13.8867 7.30143 13.7929 7.208L9.99994 3.414V14.5C9.99994 14.6326 9.94727 14.7598 9.8535 14.8536C9.75973 14.9473 9.63255 15 9.49994 15C9.36734 15 9.24016 14.9473 9.14639 14.8536C9.05262 14.7598 8.99994 14.6326 8.99994 14.5V2.207Z" fill="black"/>
</svg>
