<svg width="16" height="16" viewBox="0 0 16 16" fill="none" xmlns="http://www.w3.org/2000/svg">
<path d="M8 1C4.134 1 1 4.134 1 8C1 9.185 1.295 10.3025 1.8155 11.2815L1.0295 14.045C0.992972 14.1735 0.991426 14.3094 1.02502 14.4387C1.05861 14.568 1.12613 14.686 1.22059 14.7804C1.31504 14.8749 1.43301 14.9424 1.5623 14.976C1.69159 15.0096 1.82751 15.008 1.956 14.9715L4.72 14.1855C5.72996 14.722 6.8564 15.0017 8 15C11.866 15 15 11.866 15 8C15 4.134 11.866 1 8 1ZM8 14.5C6.9385 14.5004 5.89304 14.2409 4.955 13.744L4.7775 13.6495L1.8195 14.491C1.79614 14.498 1.77188 14.5015 1.7475 14.5015C1.7091 14.5007 1.6714 14.4912 1.63727 14.4735C1.60314 14.4559 1.5735 14.4307 1.55062 14.3999C1.52774 14.369 1.51223 14.3334 1.50528 14.2956C1.49832 14.2578 1.50011 14.219 1.5105 14.182L2.3515 11.2245L2.257 11.047C1.75956 10.1086 1.49965 9.0626 1.5 8.0005C1.5 4.4165 4.416 1.5005 8 1.5005C11.584 1.5005 14.5 4.4165 14.5 8.0005C14.5 11.5845 11.584 14.5 8 14.5ZM10.75 6.5005H5.25C5.1837 6.5005 5.12011 6.47416 5.07322 6.42728C5.02634 6.38039 5 6.3168 5 6.2505C5 6.1842 5.02634 6.12061 5.07322 6.07372C5.12011 6.02684 5.1837 6.0005 5.25 6.0005H10.75C10.8163 6.0005 10.8799 6.02684 10.9268 6.07372C10.9737 6.12061 11 6.1842 11 6.2505C11 6.3168 10.9737 6.38039 10.9268 6.42728C10.8799 6.47416 10.8163 6.5005 10.75 6.5005ZM8.75 9.5005H5.25C5.1837 9.5005 5.12011 9.47416 5.07322 9.42728C5.02634 9.38039 5 9.3168 5 9.2505C5 9.1842 5.02634 9.12061 5.07322 9.07372C5.12011 9.02684 5.1837 9.0005 5.25 9.0005H8.75C8.8163 9.0005 8.87989 9.02684 8.92678 9.07372C8.97366 9.12061 9 9.1842 9 9.2505C9 9.3168 8.97366 9.38039 8.92678 9.42728C8.87989 9.47416 8.8163 9.5005 8.75 9.5005Z" fill="black"/>
</svg>
