<svg width="28" height="28" viewBox="0 0 28 28" fill="none" xmlns="http://www.w3.org/2000/svg">
<g clip-path="url(#clip0_719_152)">
<path d="M7.25 2C6.38805 2 5.5614 2.34241 4.9519 2.9519C4.34241 3.5614 4 4.38805 4 5.25V22.75C4 23.612 4.34241 24.4386 4.9519 25.0481C5.5614 25.6576 6.38805 26 7.25 26H16.818L14.661 23.843C14.4521 23.6341 14.2863 23.386 14.1733 23.113C14.0602 22.8401 14.002 22.5475 14.002 22.252C14.002 21.9565 14.0602 21.6639 14.1733 21.391C14.2863 21.118 14.4521 20.8699 14.661 20.661C14.8699 20.4521 15.118 20.2863 15.391 20.1733C15.6639 20.0602 15.9565 20.002 16.252 20.002C16.5475 20.002 16.8401 20.0602 17.113 20.1733C17.386 20.2863 17.6341 20.4521 17.843 20.661L19.25 22.068L23.659 17.659C23.7657 17.5523 23.8793 17.459 24 17.379V5.25C24 4.38805 23.6576 3.5614 23.0481 2.9519C22.4386 2.34241 21.612 2 20.75 2H7.25ZM10.5 8.75C10.5 9.08152 10.3683 9.39946 10.1339 9.63388C9.89946 9.8683 9.58152 10 9.25 10C8.91848 10 8.60054 9.8683 8.36612 9.63388C8.1317 9.39946 8 9.08152 8 8.75C8 8.41848 8.1317 8.10054 8.36612 7.86612C8.60054 7.6317 8.91848 7.5 9.25 7.5C9.58152 7.5 9.89946 7.6317 10.1339 7.86612C10.3683 8.10054 10.5 8.41848 10.5 8.75ZM9.25 15.25C8.91848 15.25 8.60054 15.1183 8.36612 14.8839C8.1317 14.6495 8 14.3315 8 14C8 13.6685 8.1317 13.3505 8.36612 13.1161C8.60054 12.8817 8.91848 12.75 9.25 12.75C9.58152 12.75 9.89946 12.8817 10.1339 13.1161C10.3683 13.3505 10.5 13.6685 10.5 14C10.5 14.3315 10.3683 14.6495 10.1339 14.8839C9.89946 15.1183 9.58152 15.25 9.25 15.25ZM9.25 20.5C8.91848 20.5 8.60054 20.3683 8.36612 20.1339C8.1317 19.8995 8 19.5815 8 19.25C8 18.9185 8.1317 18.6005 8.36612 18.3661C8.60054 18.1317 8.91848 18 9.25 18C9.58152 18 9.89946 18.1317 10.1339 18.3661C10.3683 18.6005 10.5 18.9185 10.5 19.25C10.5 19.5815 10.3683 19.8995 10.1339 20.1339C9.89946 20.3683 9.58152 20.5 9.25 20.5ZM12.75 8H19.25C19.4489 8 19.6397 8.07902 19.7803 8.21967C19.921 8.36032 20 8.55109 20 8.75C20 8.94891 19.921 9.13968 19.7803 9.28033C19.6397 9.42098 19.4489 9.5 19.25 9.5H12.75C12.5511 9.5 12.3603 9.42098 12.2197 9.28033C12.079 9.13968 12 8.94891 12 8.75C12 8.55109 12.079 8.36032 12.2197 8.21967C12.3603 8.07902 12.5511 8 12.75 8ZM12 14C12 13.8011 12.079 13.6103 12.2197 13.4697C12.3603 13.329 12.5511 13.25 12.75 13.25H19.25C19.4489 13.25 19.6397 13.329 19.7803 13.4697C19.921 13.6103 20 13.8011 20 14C20 14.1989 19.921 14.3897 19.7803 14.5303C19.6397 14.671 19.4489 14.75 19.25 14.75H12.75C12.5511 14.75 12.3603 14.671 12.2197 14.5303C12.079 14.3897 12 14.1989 12 14ZM12.75 18.5H19.25C19.4489 18.5 19.6397 18.579 19.7803 18.7197C19.921 18.8603 20 19.0511 20 19.25C20 19.4489 19.921 19.6397 19.7803 19.7803C19.6397 19.921 19.4489 20 19.25 20H12.75C12.5511 20 12.3603 19.921 12.2197 19.7803C12.079 19.6397 12 19.4489 12 19.25C12 19.0511 12.079 18.8603 12.2197 18.7197C12.3603 18.579 12.5511 18.5 12.75 18.5ZM19.78 25.78L25.78 19.78C25.8537 19.7113 25.9128 19.6285 25.9538 19.5365C25.9948 19.4445 26.0168 19.3452 26.0186 19.2445C26.0204 19.1438 26.0018 19.0438 25.9641 18.9504C25.9264 18.857 25.8703 18.7722 25.799 18.701C25.7278 18.6297 25.643 18.5736 25.5496 18.5359C25.4562 18.4982 25.3562 18.4796 25.2555 18.4814C25.1548 18.4832 25.0555 18.5052 24.9635 18.5462C24.8715 18.5872 24.7887 18.6463 24.72 18.72L19.25 24.19L16.782 21.722C16.6398 21.5895 16.4518 21.5174 16.2575 21.5208C16.0632 21.5243 15.8778 21.603 15.7404 21.7404C15.603 21.8778 15.5243 22.0632 15.5208 22.2575C15.5174 22.4518 15.5895 22.6398 15.722 22.782L18.72 25.78C18.8606 25.9205 19.0512 25.9993 19.25 25.9993C19.4488 25.9993 19.6394 25.9205 19.78 25.78Z" fill="#5753D3"/>
</g>
<defs>
<clipPath id="clip0_719_152">
<rect width="28" height="28" fill="white"/>
</clipPath>
</defs>
</svg>
