<svg width="28" height="28" viewBox="0 0 28 28" fill="none" xmlns="http://www.w3.org/2000/svg">
<path d="M13.5 3V9.5H3V6.75C3 5.75544 3.39509 4.80161 4.09835 4.09835C4.80161 3.39509 5.75544 3 6.75 3H13.5ZM15 3V16.5H25V6.75C25 5.75544 24.6049 4.80161 23.9017 4.09835C23.1984 3.39509 22.2446 3 21.25 3H15ZM25 18H15V25H21.25C22.2446 25 23.1984 24.6049 23.9017 23.9017C24.6049 23.1984 25 22.2446 25 21.25V18ZM13.5 25V11H3V21.25C3 22.2446 3.39509 23.1984 4.09835 23.9017C4.80161 24.6049 5.75544 25 6.75 25H13.5Z" fill="#5753D3"/>
</svg>
