<svg width="24" height="24" viewBox="0 0 24 24" fill="none" xmlns="http://www.w3.org/2000/svg">
<path d="M12.03 19.962C11.2347 19.962 10.5344 19.6717 9.92902 19.091C9.32369 18.5097 9.03202 17.8613 9.05402 17.146C8.38869 17.5193 7.66369 17.602 6.87902 17.394C6.09435 17.1867 5.49235 16.7297 5.07302 16.023C4.66302 15.3383 4.56635 14.5917 4.78302 13.783C4.99969 12.9743 5.46169 12.3787 6.16902 11.996C5.46902 11.622 5.00969 11.0353 4.79102 10.236C4.57235 9.438 4.66235 8.69667 5.06102 8.012C5.45969 7.32733 6.05935 6.86333 6.86002 6.62C7.66069 6.37667 8.38836 6.44167 9.04302 6.815C9.02102 6.07433 9.31269 5.42 9.91802 4.852C10.5234 4.284 11.224 4 12.02 4C12.816 4 13.5167 4.284 14.122 4.852C14.7274 5.42 15.019 6.07433 14.997 6.815C15.661 6.44167 16.3824 6.374 17.161 6.612C17.9397 6.85 18.5324 7.31667 18.939 8.012C19.3377 8.704 19.4297 9.44633 19.215 10.239C19.0004 11.0323 18.5394 11.6193 17.832 12C18.5394 12.3807 19.0027 12.9733 19.222 13.778C19.44 14.5827 19.3497 15.331 18.951 16.023C18.5317 16.745 17.939 17.206 17.173 17.406C16.407 17.606 15.6857 17.5193 15.009 17.146C15.0304 17.8613 14.7387 18.5097 14.134 19.091C13.5287 19.671 12.828 19.961 12.032 19.961M12.032 18.961C12.8154 18.961 13.4027 18.6237 13.794 17.949C14.1854 17.2743 14.1814 16.612 13.782 15.962L13.082 14.812C12.8987 14.8813 12.7237 14.933 12.557 14.967C12.3904 15.001 12.2154 15.0183 12.032 15.019C11.8654 15.019 11.6977 15.0033 11.529 14.972C11.3604 14.9407 11.178 14.8937 10.982 14.831L10.282 15.961C9.88202 16.6117 9.87769 17.2743 10.269 17.949C10.6604 18.6237 11.248 18.9603 12.032 18.961ZM5.90602 15.5C6.29935 16.158 6.88602 16.487 7.66602 16.487C8.44602 16.487 9.02936 16.158 9.41602 15.5L10.085 14.33C9.93835 14.1967 9.80702 14.0613 9.69102 13.924C9.57502 13.7867 9.47502 13.6417 9.39102 13.489C9.30769 13.3383 9.23569 13.1807 9.17502 13.016C9.11502 12.8513 9.06636 12.6793 9.02902 12.5H7.66602C6.90802 12.5 6.33102 12.8357 5.93502 13.507C5.53902 14.1783 5.52935 14.8427 5.90602 15.5ZM14.585 15.5C14.955 16.1447 15.534 16.4703 16.322 16.477C17.11 16.4837 17.7007 16.158 18.094 15.5C18.4707 14.8427 18.461 14.1783 18.065 13.507C17.669 12.8357 17.0924 12.5 16.335 12.5H14.972C14.9387 12.68 14.894 12.852 14.838 13.016C14.782 13.1807 14.712 13.335 14.628 13.479C14.5454 13.639 14.4424 13.7877 14.319 13.925C14.1957 14.0623 14.061 14.1977 13.915 14.331L14.585 15.5ZM9.02902 11.5C9.06902 11.3213 9.11936 11.1463 9.18002 10.975C9.24069 10.8043 9.31402 10.6443 9.40002 10.495C9.48669 10.3443 9.58602 10.2023 9.69802 10.069C9.81002 9.93567 9.93902 9.80233 10.085 9.669L9.41502 8.5C9.03235 7.82933 8.45002 7.49067 7.66802 7.484C6.88669 7.478 6.30235 7.81667 5.91502 8.5C5.54435 9.158 5.55435 9.82233 5.94502 10.493C6.33435 11.1643 6.90769 11.5 7.66502 11.5H9.02902ZM16.335 11.5C17.0924 11.5 17.6657 11.1643 18.055 10.493C18.4457 9.82167 18.4557 9.15733 18.085 8.5C17.6977 7.81667 17.1134 7.478 16.332 7.484C15.5507 7.49067 14.9684 7.82933 14.585 8.5L13.915 9.67C14.063 9.80333 14.1974 9.93667 14.318 10.07C14.438 10.2033 14.5397 10.3447 14.623 10.494C14.7064 10.6433 14.776 10.804 14.832 10.976C14.888 11.146 14.9347 11.3207 14.972 11.5H16.335ZM10.964 9.17C11.16 9.094 11.3407 9.04333 11.506 9.018C11.6714 8.99267 11.841 8.98033 12.015 8.981C12.189 8.98167 12.361 8.99733 12.531 9.028C12.701 9.05867 12.876 9.10567 13.056 9.169L13.769 8C14.165 7.35 14.1684 6.68767 13.779 6.013C13.389 5.33767 12.8024 5 12.019 5C11.2357 5 10.6524 5.33667 10.269 6.01C9.88569 6.68333 9.88569 7.34667 10.269 8L10.964 9.17ZM10.964 9.17C11.16 9.094 11.3407 9.04333 11.506 9.018C11.6714 8.99267 11.841 8.98033 12.015 8.981C12.189 8.98167 12.361 8.99733 12.531 9.028C12.701 9.05867 12.876 9.10567 13.056 9.169C12.8774 9.10633 12.7024 9.05933 12.531 9.028C12.361 8.99733 12.189 8.98167 12.015 8.981C11.841 8.98033 11.6714 8.99267 11.506 9.018C11.34 9.04267 11.1594 9.093 10.964 9.169M9.39002 13.49C9.30669 13.3393 9.23469 13.1817 9.17402 13.017C9.23402 13.1817 9.30602 13.336 9.39002 13.48C9.47336 13.64 9.57335 13.7887 9.69002 13.926C9.57402 13.788 9.47402 13.6427 9.39002 13.49ZM9.02902 11.5C9.06902 11.3213 9.11936 11.1463 9.18002 10.975C9.24069 10.8043 9.31402 10.6443 9.40002 10.495C9.48669 10.3443 9.58602 10.2023 9.69802 10.069C9.81002 9.93567 9.93902 9.80233 10.085 9.669C9.94369 9.80233 9.81569 9.93567 9.70102 10.069C9.58636 10.2023 9.48469 10.344 9.39602 10.494C9.31269 10.644 9.24069 10.8037 9.18002 10.975C9.12002 11.145 9.06969 11.3207 9.02902 11.5ZM12.031 15.02C11.8644 15.02 11.6967 15.004 11.528 14.972C11.3594 14.9407 11.177 14.8937 10.981 14.831C11.177 14.8937 11.361 14.9407 11.533 14.972C11.705 15.0033 11.8727 15.019 12.036 15.019C12.216 15.019 12.3894 15.0017 12.556 14.967C12.3894 15.001 12.2154 15.0183 12.032 15.019M13.916 14.331C14.062 14.1977 14.1954 14.062 14.316 13.924C14.438 13.7867 14.5424 13.6417 14.629 13.489C14.7124 13.3383 14.782 13.1807 14.838 13.016C14.894 12.8513 14.9384 12.6793 14.971 12.5C14.9377 12.68 14.893 12.852 14.837 13.016C14.7817 13.1807 14.7114 13.335 14.628 13.479C14.5454 13.639 14.4424 13.7877 14.319 13.925C14.1957 14.0623 14.061 14.1977 13.915 14.331M14.971 11.5C14.9344 11.3213 14.8877 11.1463 14.831 10.975C14.7757 10.8043 14.7064 10.6433 14.623 10.494C14.5397 10.3447 14.438 10.2047 14.318 10.07C14.198 9.93533 14.064 9.801 13.916 9.669C14.0634 9.80233 14.1974 9.93667 14.318 10.07C14.438 10.2033 14.5397 10.3447 14.623 10.494C14.7064 10.6433 14.776 10.804 14.832 10.976C14.888 11.146 14.9347 11.3207 14.972 11.5M12 14C12.55 14 13.021 13.8043 13.413 13.413C13.805 13.0217 14.0007 12.5507 14 12C13.9994 11.4493 13.8037 10.9787 13.413 10.588C13.0224 10.1973 12.5514 10.0013 12 10C11.4487 9.99867 10.978 10.1947 10.588 10.588C10.198 10.9813 10.002 11.452 10 12C9.99802 12.548 10.194 13.019 10.588 13.413C10.982 13.807 11.4527 14.0027 12 14Z" fill="black"/>
</svg>
